<svg width="120" height="71" viewBox="0 0 120 71" fill="none" xmlns="http://www.w3.org/2000/svg">
<path d="M61.5473 29.1737C60.8686 27.6736 60.0515 26.2297 58.9415 24.9588C58.1211 24.0151 57.1997 23.1883 56.1788 22.4643C55.5548 22.0216 54.9131 21.6399 54.2761 21.279C53.2135 20.6739 52.0643 20.2733 50.8957 19.992C49.199 19.5805 47.4845 19.421 45.7398 19.5367C44.0621 19.6448 42.4157 19.9624 40.821 20.5959C38.2495 21.6129 36.1287 23.2453 34.3436 25.311C33.6294 26.1345 33.0301 27.0317 32.4826 27.9347L32.3486 28.1557L32.4513 28.3928C32.4749 28.4471 32.4977 28.4989 32.5198 28.549C32.5902 28.7087 32.6526 28.8506 32.7057 29.0001L32.7057 29.0001L32.7067 29.0029C32.7703 29.1787 32.8341 29.3525 32.8975 29.5252C33.0765 30.0125 33.2522 30.491 33.4102 30.9805L33.4106 30.9817C33.5547 31.4238 33.6756 31.8715 33.7997 32.331C33.8472 32.5066 33.8951 32.6839 33.9449 32.8633L33.9453 32.8647C33.9791 32.9851 34.013 33.1048 34.0467 33.224C34.19 33.7302 34.3306 34.2271 34.4535 34.7298C34.5388 35.0796 34.6204 35.4382 34.703 35.801C34.8844 36.5982 35.0705 37.4157 35.3104 38.2039L35.4182 38.5583L62.4611 33.0735L62.9383 32.9242C62.5426 31.6593 62.1072 30.4014 61.5473 29.1737ZM61.5473 29.1737C61.5474 29.174 61.5475 29.1742 61.5476 29.1744L61.0921 29.3805L61.547 29.173C61.5471 29.1732 61.5472 29.1735 61.5473 29.1737ZM63.0875 37.65C63.0874 37.649 63.0874 37.648 63.0874 37.647L62.5875 37.6582L63.0875 37.6527C63.0875 37.6518 63.0875 37.6509 63.0875 37.65ZM53.8108 27.6063L53.8109 27.6064C55.0705 28.6748 55.8902 30.0717 56.649 31.6032C56.881 32.0729 57.1032 32.546 57.3121 33.0228H57.3091H57.2881H57.2672H57.2462H57.2252H57.2042H57.1833H57.1623H57.1413H57.1203H57.0993H57.0784H57.0574H57.0364H57.0154H56.9945H56.9735H56.9525H56.9315H56.9106H56.8896H56.8686H56.8476H56.8267H56.8057H56.7847H56.7637H56.7428H56.7218H56.7008H56.6798H56.6589H56.6379H56.6169H56.596H56.575H56.554H56.533H56.5121H56.4911H56.4701H56.4491H56.4282H56.4072H56.3862H56.3653H56.3443H56.3233H56.3023H56.2814H56.2604H56.2394H56.2185H56.1975H56.1765H56.1555H56.1346H56.1136H56.0926H56.0717H56.0507H56.0297H56.0088H55.9878H55.9668H55.9458H55.9249H55.9039H55.8829H55.862H55.841H55.82H55.7991H55.7781H55.7571H55.7362H55.7152H55.6942H55.6733H55.6523H55.6313H55.6103H55.5894H55.5684H55.5474H55.5265H55.5055H55.4845H55.4636H55.4426H55.4216H55.4007H55.3797H55.3587H55.3378H55.3168H55.2958H55.2749H55.2539H55.2329H55.212H55.191H55.17H55.1491H55.1281H55.1071H55.0862H55.0652H55.0442H55.0233H55.0023H54.9814H54.9604H54.9394H54.9185H54.8975H54.8765H54.8556H54.8346H54.8136H54.7927H54.7717H54.7507H54.7298H54.7088H54.6878H54.6669H54.6459H54.625H54.604H54.583H54.5621H54.5411H54.5201H54.4992H54.4782H54.4572H54.4363H54.4153H54.3944H54.3734H54.3524H54.3315H54.3105H54.2895H54.2686H54.2476H54.2267H54.2057H54.1847H54.1638H54.1428H54.1218H54.1009H54.0799H54.059H54.038H54.017H53.9961H53.9751H53.9541H53.9332H53.9122H53.8913H53.8703H53.8493H53.8284H53.8074H53.7865H53.7655H53.7445H53.7236H53.7026H53.6816H53.6607H53.6397H53.6188H53.5978H53.5768H53.5559H53.5349H53.514H53.493H53.472H53.4511H53.4301H53.4092H53.3882H53.3672H53.3463H53.3253H53.3043H53.2834H53.2624H53.2415H53.2205H53.1995H53.1786H53.1576H53.1367H53.1157H53.0947H53.0738H53.0528H53.0319H53.0109H52.9899H52.969H52.948H52.9271H52.9061H52.8851H52.8642H52.8432H52.8223H52.8013H52.7803H52.7594H52.7384H52.7175H52.6965H52.6755H52.6546H52.6336H52.6127H52.5917H52.5707H52.5498H52.5288H52.5079H52.4869H52.4659H52.445H52.424H52.4031H52.3821H52.3611H52.3402H52.3192H52.2983H52.2773H52.2563H52.2354H52.2144H52.1935H52.1725H52.1515H52.1306H52.1096H52.0887H52.0677H52.0467H52.0258H52.0048H51.9839H51.9629H51.9419H51.921H51.9H51.8791H51.8581H51.8371H51.8162H51.7952H51.7743H51.7533H51.7323H51.7114H51.6904H51.6695H51.6485H51.6275H51.6066H51.5856H51.5647H51.5437H51.5227H51.5018H51.4808H51.4599H51.4389H51.4179H51.397H51.376H51.3551H51.3341H51.3131H51.2922H51.2712H51.2503H51.2293H51.2083H51.1874H51.1664H51.1455H51.1245H51.1035H51.0826H51.0616H51.0407H51.0197H50.9987H50.9778H50.9568H50.9358H50.9149H50.8939H50.873H50.852H50.831H50.8101H50.7891H50.7682H50.7472H50.7262H50.7053H50.6843H50.6633H50.6424H50.6214H50.6005H50.5795H50.5585H50.5376H50.5166H50.4957H50.4747H50.4537H50.4328H50.4118H50.3908H50.3699H50.3489H50.328H50.307H50.286H50.2651H50.2441H50.2231H50.2022H50.1812H50.1602H50.1393H50.1183H50.0974H50.0764H50.0554H50.0345H50.0135H49.9925H49.9716H49.9506H49.9297H49.9087H49.8877H49.8668H49.8458H49.8248H49.8039H49.7829H49.7619H49.741H49.72H49.699H49.6781H49.6571H49.6362H49.6152H49.5942H49.5733H49.5523H49.5313H49.5104H49.4894H49.4684H49.4475H49.4265H49.4055H49.3846H49.3636H49.3426H49.3217H49.3007H49.2797H49.2588H49.2378H49.2168H49.1959H49.1749H49.1539H49.133H49.112H49.091H49.0701H49.0491H49.0281H49.0072H48.9862H48.9652H48.9443H48.9233H48.9023H48.8814H48.8604H48.8394H48.8185H48.7975H48.7765H48.7555H48.7346H48.7136H48.6926H48.6717H48.6507H48.6297H48.6088H48.5878H48.5668H48.5459H48.5249H48.5039H48.4829H48.462H48.441H48.42H48.3991H48.3781H48.3571H48.3362H48.3152H48.2942H48.2732H48.2523H48.2313H48.2103H48.1894H48.1684H48.1474H48.1264H48.1055H48.0845H48.0635H48.0425H48.0216H48.0006H47.9796H47.9587H47.9377H47.9167H47.8957H47.8748H47.8538H47.8328H47.8118H47.7909H47.7699H47.7489H47.7279H47.707H47.686H47.665H47.644H47.6231H47.6021H47.5811H47.5601H47.5392H47.5182H47.4972H47.4762H47.4553H47.4343H47.4133H47.3923H47.3714H47.3504H47.3294H47.3084H47.2874H47.2665H47.2455H47.2245H47.2035H47.1826H47.1616H47.1406H47.1196H47.0986H47.0777H47.0567H47.0357H47.0147H46.9937H46.9728H46.9518H46.9308H46.9098H46.8888H46.8679H46.8469H46.8259H46.8049H46.7839H46.763H46.742H46.721H46.7H46.679H46.6581H46.6371H46.6161H46.5951H46.5741H46.5532H46.5322H46.5112H46.4902H46.4692H46.4483H46.4273H46.4063H46.3853H46.3643H46.3433H46.3224H46.3014H46.2804H46.2594H46.2384H46.2175H46.1965H46.1755H46.1545H46.1335H46.1126H46.0916H46.0706H46.0496H46.0286H46.0077H45.9867H45.9657H45.9447H45.9237H45.9028H45.8818H45.8608H45.8398H45.8188H45.7979H45.7769H45.7559H45.7349H45.7139H45.693H45.672H45.651H45.63H45.609H45.5881H45.5671H45.5461H45.5251H45.5041H45.4832H45.4622H45.4412H45.4202H45.3992H45.3783H45.3573H45.3363H45.3153H45.2943H45.2734H45.2524H45.2314H45.2104H45.1895H45.1685H45.1475H45.1265H45.1055H45.0846H45.0636H45.0426H45.0216H45.0006H44.9797H44.9587H44.9377H44.9167H44.8957H44.8748H44.8538H44.8328H44.8118H44.7908H44.7699H44.7489H44.7279H44.7069H44.686H44.665H44.644H44.623H44.602H44.5811H44.5601H44.5391H44.5181H44.4971H44.4762H44.4552H44.4342H44.4132H44.3923H44.3713H44.3503H44.3293H44.3083H44.2874H44.2664H44.2454H44.2244H44.2035H44.1825H44.1615H44.1405H44.1195H44.0986H44.0776H44.0566H44.0356H44.0147H43.9937H43.9727H43.9517H43.9307H43.9098H43.8888H43.8678H43.8468H43.8259H43.8049H43.7839H43.7629H43.742H43.721H43.7H43.679H43.658H43.6371H43.6161H43.5951H43.5741H43.5532H43.5322H43.5112H43.4902H43.4693H43.4483H43.4273H43.4063H43.3854H43.3644H43.3434H43.3224H43.3014H43.2805H43.2595H43.2385H43.2175H43.1966H43.1756H43.1546H43.1336H43.1127H43.0917H43.0707H43.0497H43.0288H43.0078H42.9868H42.9658H42.9449H42.9239H42.9029H42.8819H42.861H42.84H42.819H42.798H42.7771H42.7561H42.7351H42.7141H42.6932H42.6722H42.6512H42.6303H42.6093H42.5883H42.5673H42.5464H42.5254H42.5044H42.4834H42.4625H42.4415H42.4205H42.3995H42.3786H42.3576H42.3366H42.3157H42.2947H42.2737H42.2527H42.2318H42.2108H42.1898H42.1688H42.1479H42.1269H42.1059H42.085H42.064H42.043H42.022H42.0011H41.9801H41.9591H41.9381H41.9172H41.8962H41.8752H41.8543H41.8333H41.8123H41.7913H41.7704H41.7494H41.7284H41.7075H41.6865H41.6655H41.6446H41.6236H41.6026H41.5816H41.5607H41.5397H41.5187H41.4978H41.4768H41.4558H41.4349H41.4139H41.3929H41.3719H41.351H41.33H41.309H41.2881H41.2671H41.2461H41.2252H41.2042H41.1832H41.1623H41.1413H41.1203H41.0993H41.0784H41.0574H41.0364H41.0155H40.9945H40.9735H40.9526H40.9316H40.9106H40.8897H40.8687H40.8477H40.8268H40.8058H40.7848H40.7639H40.7429H40.7219H40.701H40.68H40.659H40.6381H40.6171H40.5961H40.5752H40.5542H40.5332H40.5123H40.4913H40.4703H40.4494H40.4284H40.4074H40.3865H40.3655H40.3445H40.3236H40.3026H40.2816H40.2607H40.2397H40.2188H40.1978H40.1768H40.1559H40.1349H40.1139H40.093H40.072H40.051H40.0301H40.0091H39.9882H39.9672H39.9462H39.9253H39.9043H39.8833H39.8624H39.8414H39.8204H39.7995H39.7785H39.7576H39.7366H39.7156H39.6947H39.6737H39.6528H39.6318H39.6108H39.5899H39.5689H39.5479H39.527H39.506H39.4851H39.4641H39.4431H39.4222H39.4012H39.3803H39.3593H39.3383H39.3174H39.2964H39.2755H39.2545H39.2335H39.2126H39.1916H39.1707H39.1497H39.1287H39.1078H39.0868H39.0659H39.0449H39.024H39.003H38.982H38.9611H38.9401H38.9192H38.8982H38.8772H38.8563H38.8353H38.8144H38.7934H38.7725H38.7515H38.7305H38.7096H38.6886H38.6677H38.6467H38.6258H38.6048H38.5839H38.5629H38.5419H38.521H38.5H38.4791H38.4581H38.4372H38.4162H38.3953H38.3743H38.3533H38.3324H38.3114H38.2905H38.2695H38.2486H38.2276H38.2067H38.1857H38.1648H38.1438H38.1229H38.1019H38.081H38.06H38.039H38.0181H37.9971H37.9762H37.9552H37.9343H37.9133H37.8924H37.8714H37.8505H37.8295H37.8086H37.7876H37.7667H37.7457H37.7248H37.7038H37.6829H37.6619H37.641H37.62H37.5991H37.5781H37.5572H37.5362H37.5153H37.4943H37.4734H37.4524H37.4315H37.4105H37.3896H37.3686H37.3477H37.3267H37.3058H37.2849H37.2639H37.243H37.222H37.2011H37.1801H37.1592H37.1382H37.1173H37.0963H37.0754H37.0544H37.0335H37.0125H36.9916H36.9707H36.9497H36.9288H36.9078H36.8869H36.8659H36.845H36.824H36.8031H36.7822H36.7612H36.7403H36.7193H36.6984H36.6774H36.6565H36.6356H36.6146H36.5937H36.5727H36.5518H36.5308H36.5099H36.489H36.468H36.4471H36.4261H36.4052H36.3842H36.3706C37.132 30.2505 38.7672 28.124 41.1971 26.5723L41.1988 26.5712C42.5813 25.6806 44.1212 25.2045 45.7899 25.0697C46.9834 24.9817 48.1492 25.0432 49.3041 25.2917C50.9987 25.6572 52.4704 26.469 53.8108 27.6063Z" fill="#006940" stroke="#006940"/>
<path d="M56.2406 42.0093H56.2453C57.3745 42.0198 58.503 42.0185 59.6344 42.0172C60.0123 42.0168 60.3904 42.0163 60.7691 42.0163C60.8541 42.0163 60.9612 42.0176 61.0571 42.034C61.1301 42.0466 61.3702 42.0935 61.5023 42.3321C61.6288 42.5606 61.5528 42.7838 61.5298 42.8489C61.4981 42.9385 61.449 43.0321 61.4064 43.1105C59.8678 46.0206 57.6688 48.3206 54.8379 49.9889C53.1828 50.9659 51.3871 51.5603 49.4936 51.8567L49.4923 51.8569C48.4533 52.0167 47.4292 52.045 46.3803 52.0452L46.3752 52.0454L46.329 52.0472C46.2894 52.0486 46.233 52.0502 46.1636 52.0515C46.0252 52.054 45.8336 52.0549 45.6212 52.0485C45.2388 52.0369 44.7163 52.0003 44.3302 51.873C40.4894 51.368 37.3864 49.4994 34.7804 46.7574L34.7801 46.7571C33.5932 45.5063 32.4893 44.1674 31.6787 42.5825L31.678 42.5813C30.9756 41.1984 30.5643 39.7318 30.2581 38.258M56.2406 42.0093L30.7477 38.1563M56.2406 42.0093C56.0455 42.0093 55.8514 42.0412 55.6674 42.1316C55.4839 42.2217 55.3452 42.3528 55.2341 42.4985M56.2406 42.0093L60.5867 42.5164C60.2701 42.5165 59.9535 42.5168 59.637 42.5172C58.5049 42.5185 57.3727 42.5198 56.2406 42.5093C55.9598 42.5093 55.7843 42.6006 55.6298 42.8042M30.2581 38.258L30.7477 38.1563M30.2581 38.258C30.2582 38.2582 30.2582 38.2583 30.2582 38.2585L30.7477 38.1563M30.2581 38.258C30.2 37.9796 30.1437 37.7026 30.0877 37.4272C29.718 35.6098 29.362 33.8599 28.6018 32.2159L28.6018 32.2158C27.7818 30.4413 26.5846 28.9991 24.9544 27.9233M30.7477 38.1563C30.6904 37.8821 30.6347 37.6075 30.5789 37.3329C30.2105 35.5196 29.8422 33.7072 29.0557 32.006C28.1991 30.1525 26.9424 28.636 25.2293 27.5056M24.9544 27.9233L25.2293 27.5056M24.9544 27.9233C24.9542 27.9232 24.954 27.9231 24.9539 27.9229L25.2293 27.5056M24.9544 27.9233C23.8945 27.2256 22.7527 26.7346 21.5181 26.4174M25.2293 27.5056C24.12 26.7754 22.9264 26.2629 21.6416 25.9329C20.3638 25.61 19.0649 25.6521 17.7801 25.7785C16.2285 25.9329 14.7962 26.4876 13.4763 27.316L13.7422 27.7394C15.0087 26.9446 16.3678 26.4216 17.8294 26.276M49.4163 51.3627C48.4123 51.5171 47.4153 51.5452 46.3692 51.5452C46.3692 51.5452 45.0563 51.6084 44.4455 51.3837L49.4163 51.3627ZM49.4163 51.3627C51.2558 51.0748 52.9899 50.4991 54.5837 49.5583C57.2886 47.9643 59.3967 45.7804 60.888 43.0197M49.4163 51.3627L60.888 43.0197M60.888 43.0197C60.8895 43.0199 60.8894 43.0199 60.8881 43.0197C60.8867 43.0194 60.8525 43.0141 60.8062 42.9906C60.7947 42.9848 60.7822 42.9778 60.7691 42.9692C60.7226 42.939 60.6684 42.8904 60.6274 42.8164C60.5981 42.7635 60.5839 42.7126 60.5777 42.6693C60.5774 42.6672 60.5771 42.6651 60.5768 42.663C60.573 42.6329 60.5729 42.6067 60.5742 42.5865C60.5758 42.5621 60.5795 42.5438 60.582 42.5333C60.5841 42.5244 60.586 42.5185 60.5867 42.5164L60.888 43.0197ZM55.6298 42.8042L55.2363 42.4957C55.2356 42.4966 55.2348 42.4976 55.2341 42.4985M55.6298 42.8042C54.9417 43.6818 54.1273 44.419 53.2216 45.0649C52.8065 45.3636 52.3658 45.6222 51.8995 45.8669L51.6251 45.7297C51.6122 45.7215 51.5931 45.7101 51.5707 45.6989L51.3604 46.1194M55.6298 42.8042L51.3604 46.1194M55.2341 42.4985C54.5813 43.3305 53.8048 44.0349 52.9313 44.6578L52.9296 44.659C52.3876 45.049 51.792 45.3716 51.1272 45.6971L50.7411 45.8861M55.2341 42.4985L50.7411 45.8861M50.7411 45.8861C50.6821 45.8927 50.6352 45.9055 50.6124 45.9118C50.5366 45.9328 50.4493 45.9671 50.4099 45.9826C50.4094 45.9828 50.4088 45.9831 50.4083 45.9833C49.3468 46.3177 48.2673 46.5045 47.1618 46.538C44.8477 46.6054 42.7161 46.0535 40.8274 44.7457C39.1374 43.5695 37.8245 42.0852 36.9742 40.2105L36.9742 40.2105C36.6395 39.4726 36.3818 38.7541 36.2922 37.9991L36.287 37.955L36.2741 37.9125C36.0446 37.1586 35.8723 36.401 35.6953 35.6227C35.6109 35.2512 35.5253 34.875 35.432 34.4923L35.4319 34.492C35.3043 33.9701 35.1576 33.4517 35.014 32.9444C34.9809 32.8274 34.9479 32.7109 34.9154 32.5951C34.8698 32.4311 34.8244 32.2631 34.7784 32.0928C34.6521 31.6251 34.5211 31.1402 34.3687 30.6722M50.7411 45.8861L32.003 25.891M50.7411 45.8861C50.7588 45.8841 50.7774 45.8827 50.7969 45.8821C50.8837 45.8435 51.0033 45.79 51.1419 45.7271C51.1529 45.7222 51.164 45.7171 51.1752 45.712L51.3604 46.1194M50.7411 45.8861L51.3604 46.1194M34.3687 30.6722C34.3687 30.6724 34.3688 30.6726 34.3689 30.6729L33.8932 30.8265L34.3685 30.6716C34.3685 30.6718 34.3686 30.672 34.3687 30.6722ZM34.3687 30.6722C34.204 30.1624 34.0185 29.6571 33.8377 29.1647C33.7758 28.9962 33.7144 28.8291 33.6547 28.6639C33.6545 28.6635 33.6543 28.663 33.6541 28.6625L33.184 28.8326M33.184 28.8326C33.1241 28.6639 33.0516 28.4995 32.9796 28.336C32.9586 28.2885 32.9377 28.2411 32.9172 28.1937C32.8437 28.0762 32.7707 27.9582 32.6976 27.8402C32.3516 27.2812 32.0042 26.7202 31.6042 26.1927C29.9754 24.0303 27.8481 22.5137 25.3837 21.4747M33.184 28.8326C33.2457 29.0032 33.3084 29.1739 33.3711 29.3448C33.551 29.8348 33.7317 30.3268 33.8931 30.8265C34.0414 31.2816 34.1673 31.7479 34.2926 32.2118C34.3394 32.3848 34.386 32.5575 34.4337 32.7292C34.4669 32.8474 34.5004 32.9657 34.5338 33.084C34.6773 33.5908 34.821 34.0985 34.9462 34.6108C35.0355 34.9769 35.1191 35.3444 35.2027 35.7118C35.382 36.4998 35.5611 37.2871 35.7957 38.058L33.184 28.8326ZM25.3837 21.4747L25.5804 21.015C25.58 21.0148 25.5796 21.0146 25.5792 21.0145M25.3837 21.4747L25.578 21.0139C25.5784 21.0141 25.5788 21.0143 25.5792 21.0145M25.3837 21.4747C23.8251 20.8077 22.1681 20.4566 20.4691 20.3162C18.8824 20.1898 17.3167 20.3022 15.7651 20.6321C14.2556 20.9551 12.8163 21.4887 11.4613 22.2399C9.21457 23.4756 7.36807 25.1606 5.9007 27.2599M25.5792 21.0145C28.1104 22.0819 30.3132 23.648 32.003 25.891M25.5792 21.0145C23.9612 20.3222 22.25 19.9617 20.5103 19.8179L20.5088 19.8178C18.8718 19.6874 17.2578 19.8035 15.6611 20.1431L15.6605 20.1432C14.1041 20.4762 12.6185 21.0268 11.2196 21.8022M32.003 25.891C32.0029 25.8909 32.0028 25.8907 32.0027 25.8906L31.6043 26.1926L32.0036 25.8919C32.0034 25.8916 32.0032 25.8913 32.003 25.891ZM11.2196 21.8022C8.90382 23.076 7.00063 24.8136 5.49108 26.9732L5.9007 27.2599M11.2196 21.8022C11.2198 21.8021 11.2201 21.802 11.2203 21.8018L11.4613 22.2399L11.2188 21.8026C11.2191 21.8025 11.2193 21.8024 11.2196 21.8022ZM5.9007 27.2599C4.62289 29.0853 3.7523 31.0793 3.32402 33.2838M5.9007 27.2599L5.49089 26.9734M3.32402 33.2838L5.49089 26.9734M3.32402 33.2838L2.83337 33.1876C2.83334 33.1878 2.83331 33.1879 2.83328 33.188M3.32402 33.2838L5.49089 26.9734M3.32402 33.2838L2.8332 33.1885C2.83323 33.1883 2.83325 33.1882 2.83328 33.188M3.32402 33.2838C3.11339 34.358 2.98702 35.4322 3.00106 36.5205M5.49089 26.9734C4.17497 28.8534 3.27554 30.9118 2.83328 33.188M2.83328 33.188C2.61802 34.286 2.48661 35.395 2.50108 36.5256M2.50108 36.5256C2.50108 36.5251 2.50108 36.5247 2.50107 36.5242L3.00106 36.5205M2.50108 36.5256C2.51567 38.4534 2.83371 40.335 3.49983 42.1741L3.50031 42.1754C4.18706 44.0549 5.16467 45.7503 6.46174 47.2647M2.50108 36.5256C2.50109 36.526 2.5011 36.5265 2.5011 36.5269L3.00106 36.5205M3.00106 36.5205C3.0151 38.395 3.32402 40.2205 3.96995 42.0038C4.63693 43.8292 5.58476 45.4721 6.8415 46.9395M6.46174 47.2647C6.46169 47.2647 6.46163 47.2646 6.46158 47.2645L6.8415 46.9395M6.46174 47.2647C8.17301 49.2648 10.2287 50.8148 12.669 51.8576M6.46174 47.2647L6.8415 46.9395M6.8415 46.9395C8.50545 48.8843 10.4994 50.3868 12.8654 51.3978M12.669 51.8576C12.6688 51.8575 12.6686 51.8574 12.6685 51.8573L12.8654 51.3978M12.669 51.8576C14.1361 52.4863 15.6729 52.9074 17.2572 53.0745L17.258 53.0746C18.9229 53.2476 20.5848 53.2047 22.2489 52.908L22.25 52.9078C24.0555 52.5816 25.7407 51.9585 27.3401 51.1013L27.3401 51.1014L27.3499 51.0959C27.4693 51.0284 27.6066 50.929 27.7094 50.7717C27.816 50.6085 27.8566 50.4277 27.8566 50.2463L27.8566 50.2447C27.8496 48.1644 27.8496 46.0771 27.8496 43.9956M12.669 51.8576L27.8496 43.9956M12.8654 51.3978C14.2907 52.0086 15.7791 52.4158 17.3097 52.5773L12.8654 51.3978ZM27.8496 43.9956C27.8542 43.9735 27.8642 43.9215 27.8666 43.8664C27.8699 43.7939 27.864 43.6609 27.7803 43.5262C27.6942 43.3875 27.5682 43.3138 27.4593 43.2779C27.3592 43.2438 27.2407 43.2306 27.116 43.2618C26.9926 43.2926 26.9061 43.3563 26.8541 43.4034C26.8088 43.4445 26.7742 43.4879 26.7618 43.5035L26.7599 43.5058C26.7547 43.5123 26.7514 43.5164 26.7495 43.5187C26.2319 44.0496 25.6885 44.5381 25.0912 44.9563C23.6371 45.9612 22.0336 46.5555 20.2734 46.7297C18.4379 46.9044 16.682 46.642 15.0074 45.8614L15.0069 45.8612C13.5743 45.1953 12.3489 44.277 11.3379 43.0786L11.3374 43.078C11.1283 42.8308 10.9347 42.5682 10.743 42.2917C10.7207 42.2526 10.6951 42.2193 10.6696 42.1922C10.5434 42.0093 10.4225 41.8207 10.307 41.6264C10.1772 41.3975 10.0399 41.1311 9.90984 40.872C9.89283 40.7998 9.86602 40.7213 9.82327 40.6358L9.82219 40.6337C9.26312 39.5287 8.99488 38.3287 8.92752 37.0627C8.82694 35.165 9.21493 33.3742 10.112 31.6939L10.1122 31.6935C10.9872 30.0512 12.1788 28.7216 13.7421 27.7395L27.8496 43.9956ZM21.5181 26.4174C21.5184 26.4175 21.5187 26.4176 21.5191 26.4177L21.6416 25.9329L21.5172 26.4172C21.5175 26.4173 21.5178 26.4174 21.5181 26.4174ZM21.5181 26.4174C20.3262 26.1164 19.0974 26.1513 17.8294 26.276M17.8294 26.276C17.8295 26.276 17.8295 26.276 17.8296 26.276L17.7801 25.7789L17.829 26.2761C17.8292 26.2761 17.8293 26.276 17.8294 26.276ZM50.732 46.3976L50.5236 46.2934L50.5592 46.4059L50.5747 46.455M50.732 46.3976L50.4169 46.0448L50.2196 46.1414L50.51 46.2866L50.5558 46.4059L50.5747 46.455M50.732 46.3976C50.7235 46.4002 50.7148 46.403 50.706 46.4059C50.6695 46.4181 50.6317 46.4329 50.6 46.4452C50.591 46.4487 50.5826 46.452 50.5747 46.455M50.732 46.3976L50.3628 46.5202M50.5747 46.455C50.5042 46.4774 50.4335 46.4991 50.3628 46.5202M50.3628 46.5202C50.3531 46.4815 50.3486 46.4428 50.3486 46.4059V46.5244C49.3119 46.832 48.2564 47.0051 47.1766 47.0378L50.3628 46.5202ZM27.8451 44.0181C27.8449 44.0189 27.8451 44.0179 27.8457 44.0145C27.8454 44.0164 27.8452 44.0176 27.8451 44.0181ZM51.642 45.7406L51.6412 45.7401C51.6431 45.7414 51.6435 45.7417 51.642 45.7406Z" fill="#E0A301" stroke="#E0A301"/>
<path d="M72.0218 42L78.7006 26.5034H81.5162L88.2168 42H84.8993L83.3933 38.4642H76.7799L75.2958 42H72.0218ZM80.0975 30.6722L77.9585 35.6922H82.2146L80.0975 30.6722ZM89.9447 42V26.5034H99.5919V29.5154H93.1095V32.7021H98.2823V35.7141H93.1095V38.988H99.5919V42H89.9447ZM109.06 42.2619C106.848 42.2619 104.956 41.4834 103.385 39.9265C101.828 38.355 101.049 36.4634 101.049 34.2517C101.049 32.04 101.828 30.1557 103.385 28.5987C104.956 27.0273 106.848 26.2415 109.06 26.2415C110.602 26.2415 112.013 26.6198 113.294 27.3765C114.574 28.1186 115.549 29.1153 116.219 30.3667L113.469 31.8945C112.45 30.1629 110.98 29.2972 109.06 29.2972C107.721 29.2972 106.579 29.7846 105.633 30.7595C104.702 31.7199 104.236 32.8839 104.236 34.2517C104.236 35.6195 104.702 36.7908 105.633 37.7657C106.579 38.7261 107.721 39.2063 109.06 39.2063C110.98 39.2063 112.45 38.3405 113.469 36.6089L116.219 38.1368C115.549 39.4027 114.582 40.4067 113.316 41.1488C112.05 41.8909 110.631 42.2619 109.06 42.2619Z" fill="#006940"/>
<line x1="68.15" y1="20" x2="68.15" y2="52.1461" stroke="white" stroke-width="0.3"/>
</svg>
