<svg width="146" height="85" viewBox="0 0 146 85" fill="none" xmlns="http://www.w3.org/2000/svg">
<g clip-path="url(#clip0_566_58)">
<path d="M85.8875 51.3438L94.4938 31.375H98.1219L106.756 51.3438H102.481L100.541 46.7875H92.0188L90.1063 51.3438H85.8875ZM96.2938 36.7469L93.5375 43.2156H99.0219L96.2938 36.7469ZM108.983 51.3438V31.375H121.414V35.2562H113.061V39.3625H119.726V43.2437H113.061V47.4625H121.414V51.3438H108.983ZM133.614 51.6813C130.764 51.6813 128.327 50.6781 126.302 48.6719C124.295 46.6469 123.292 44.2094 123.292 41.3594C123.292 38.5094 124.295 36.0812 126.302 34.075C128.327 32.05 130.764 31.0375 133.614 31.0375C135.602 31.0375 137.42 31.525 139.07 32.5C140.72 33.4562 141.977 34.7406 142.839 36.3531L139.295 38.3219C137.983 36.0906 136.089 34.975 133.614 34.975C131.889 34.975 130.417 35.6031 129.198 36.8594C127.998 38.0969 127.398 39.5969 127.398 41.3594C127.398 43.1219 127.998 44.6312 129.198 45.8875C130.417 47.125 131.889 47.7437 133.614 47.7437C136.089 47.7437 137.983 46.6281 139.295 44.3969L142.839 46.3656C141.977 47.9969 140.73 49.2906 139.098 50.2469C137.467 51.2031 135.639 51.6813 133.614 51.6813Z" fill="#006940"/>
<path d="M85.8875 51.3438L94.4938 31.375H98.1219L106.756 51.3438H102.481L100.541 46.7875H92.0188L90.1063 51.3438H85.8875ZM96.2938 36.7469L93.5375 43.2156H99.0219L96.2938 36.7469ZM108.983 51.3438V31.375H121.414V35.2562H113.061V39.3625H119.726V43.2437H113.061V47.4625H121.414V51.3438H108.983ZM133.614 51.6813C130.764 51.6813 128.327 50.6781 126.302 48.6719C124.295 46.6469 123.292 44.2094 123.292 41.3594C123.292 38.5094 124.295 36.0812 126.302 34.075C128.327 32.05 130.764 31.0375 133.614 31.0375C135.602 31.0375 137.42 31.525 139.07 32.5C140.72 33.4562 141.977 34.7406 142.839 36.3531L139.295 38.3219C137.983 36.0906 136.089 34.975 133.614 34.975C131.889 34.975 130.417 35.6031 129.198 36.8594C127.998 38.0969 127.398 39.5969 127.398 41.3594C127.398 43.1219 127.998 44.6312 129.198 45.8875C130.417 47.125 131.889 47.7437 133.614 47.7437C136.089 47.7437 137.983 46.6281 139.295 44.3969L142.839 46.3656C141.977 47.9969 140.73 49.2906 139.098 50.2469C137.467 51.2031 135.639 51.6813 133.614 51.6813Z" fill="black" fill-opacity="0.2"/>
<line x1="80.1758" y1="23" x2="80.1758" y2="70.0462" stroke="white" stroke-width="0.351562"/>
<path d="M45.1905 46.0373C47.6323 54.015 58.5134 56.9308 64.677 51.0525C66.5261 49.2797 68.3041 48.6032 70.6984 48.8598C71.4807 48.9298 72.263 48.8598 73.069 48.8831C74.5388 48.9298 75.1315 49.7695 74.444 51.0058C71.0777 57.0008 66.052 60.803 59.0112 61.5494C49.5525 62.5525 40.3308 56.8375 37.3438 48.2999C36.5615 46.0606 36.2533 43.7279 35.6844 41.4419C34.4042 36.3567 31.3935 32.9044 26.0122 31.8314C19.8723 30.5951 13.7798 34.7939 12.5708 40.9288C11.3855 46.947 15.6526 53.1052 21.7451 54.1782C25.7515 54.878 29.2363 53.8517 32.1758 51.0991C32.6974 50.6093 33.1478 50.0728 34.0012 50.3993C34.8309 50.7492 34.8072 51.449 34.8072 52.1488C34.8072 54.3182 34.7835 56.4876 34.8072 58.6336C34.8309 59.6133 34.4279 60.2198 33.5508 60.663C19.8723 67.4977 4.91371 58.377 3.7284 44.8709C2.63792 32.2746 13.0686 22.0109 25.87 23.1306C31.6306 23.6438 36.3955 26.1397 39.8803 30.7584C39.9752 30.875 40.0937 30.9916 40.1885 31.0849C41.7294 33.3943 42.5117 36.0302 43.2229 38.6661C43.9104 41.1154 44.5268 43.588 45.1905 46.0373Z" fill="#DEA102"/>
<path d="M45.1906 46.0384C44.5505 43.5891 43.9104 41.1398 43.2467 38.6905C42.5355 36.0546 41.7532 33.442 40.2123 31.1094C42.6303 28.1936 45.3328 25.651 48.9599 24.228C58.6557 20.4258 70.011 23.9948 74.6811 34.3051C76.056 37.3142 76.8621 40.3933 76.6013 43.729C76.4591 45.5485 76.0323 46.0617 74.1595 46.0617C64.4874 46.0384 54.839 46.0384 45.1906 46.0384ZM56.5221 38.4106C59.3669 38.4106 62.1879 38.4339 65.0327 38.3873C65.9809 38.3639 67.3559 38.8771 67.7826 38.084C68.1856 37.3376 67.1425 36.3579 66.621 35.5647C64.0844 31.7858 60.41 30.0597 55.8584 30.3163C51.1645 30.5962 47.8457 33.0222 45.6884 37.0576C45.0483 38.2473 45.1906 38.3873 46.613 38.3873C49.8844 38.4106 53.2033 38.4106 56.5221 38.4106Z" fill="#01683F"/>
</g>
<defs>
<clipPath id="clip0_566_58">
<rect width="146" height="85" fill="white"/>
</clipPath>
</defs>
</svg>
